<svg width="18" height="18" viewBox="0 0 18 18" fill="none" xmlns="http://www.w3.org/2000/svg">
<g id="&#235;&#178;&#132;&#237;&#138;&#188;_&#236;&#131;&#129;&#236;&#132;&#184;&#235;&#179;&#180;&#234;&#184;&#176;">
<rect id="Rectangle 72" x="0.5" y="0.5" width="17" height="17" rx="1.5" fill="#F9F9F9" stroke="#D6D6D6"/>
<path id="Vector" d="M7.86132 14.0791L7.60397 12.5027C7.46508 12.4535 7.31394 12.3816 7.15054 12.2872C6.98714 12.1928 6.84417 12.0963 6.72162 11.9978L5.26328 12.6752L4.05005 10.5323L5.39809 9.54708C5.38175 9.4814 5.37154 9.4034 5.36745 9.31309C5.36337 9.22278 5.36132 9.14478 5.36132 9.0791C5.36132 9.01342 5.36337 8.93542 5.36745 8.84511C5.37154 8.7548 5.38175 8.6768 5.39809 8.61112L4.05005 7.6259L5.26328 5.48304L6.73387 6.16038C6.84825 6.06186 6.98714 5.96744 7.15054 5.87713C7.31394 5.78682 7.46508 5.71703 7.60397 5.66777L7.86132 4.0791H10.2388L10.4961 5.65546C10.635 5.71293 10.7882 5.78477 10.9557 5.87097C11.1232 5.95718 11.2641 6.05365 11.3785 6.16038L12.8491 5.48304L14.05 7.6259L12.702 8.58649C12.7183 8.66038 12.7286 8.74248 12.7326 8.8328C12.7367 8.92311 12.7388 9.00521 12.7388 9.0791C12.7388 9.15299 12.7367 9.23304 12.7326 9.31925C12.7286 9.40546 12.7183 9.48551 12.702 9.5594L14.05 10.5323L12.8368 12.6752L11.3662 11.9978C11.2518 12.0963 11.115 12.1949 10.9557 12.2934C10.7964 12.3919 10.6432 12.4617 10.4961 12.5027L10.2388 14.0791H7.86132ZM9.05005 10.6801C9.49122 10.6801 9.86704 10.5241 10.1775 10.2121C10.488 9.90012 10.6432 9.52245 10.6432 9.0791C10.6432 8.63575 10.488 8.25808 10.1775 7.9461C9.86704 7.63411 9.49122 7.47812 9.05005 7.47812C8.60887 7.47812 8.23306 7.63411 7.9226 7.9461C7.61214 8.25808 7.45691 8.63575 7.45691 9.0791C7.45691 9.52245 7.61214 9.90012 7.9226 10.2121C8.23306 10.5241 8.60887 10.6801 9.05005 10.6801ZM9.05005 9.94117C8.80495 9.94117 8.6007 9.85702 8.4373 9.68871C8.2739 9.5204 8.19221 9.3172 8.19221 9.0791C8.19221 8.84101 8.2739 8.6378 8.4373 8.4695C8.6007 8.30119 8.80495 8.21703 9.05005 8.21703C9.28698 8.21703 9.48918 8.30119 9.65667 8.4695C9.82415 8.6378 9.90789 8.84101 9.90789 9.0791C9.90789 9.3172 9.82415 9.5204 9.65667 9.68871C9.48918 9.85702 9.28698 9.94117 9.05005 9.94117ZM8.53534 13.2417H9.56475L9.73632 11.8624C10.0059 11.7967 10.2633 11.694 10.5084 11.5545C10.7535 11.4149 10.9741 11.2425 11.1701 11.0372L12.4692 11.6037L12.9349 10.754L11.7829 9.91654C11.8156 9.77697 11.8442 9.63739 11.8687 9.49782C11.8932 9.35825 11.9054 9.21867 11.9054 9.0791C11.9054 8.93953 11.8952 8.79995 11.8748 8.66038C11.8544 8.52081 11.8237 8.38124 11.7829 8.24166L12.9349 7.40422L12.4692 6.55447L11.1701 7.12097C10.9822 6.8993 10.7678 6.71457 10.5268 6.56679C10.2858 6.419 10.0223 6.32869 9.73632 6.29585L9.56475 4.91654H8.53534L8.36377 6.29585C8.086 6.34511 7.82456 6.44158 7.57946 6.58526C7.33436 6.72894 7.11377 6.90751 6.9177 7.12097L5.63093 6.55447L5.16524 7.40422L6.30495 8.24166C6.27227 8.38124 6.24572 8.52081 6.22529 8.66038C6.20487 8.79995 6.19466 8.93953 6.19466 9.0791C6.19466 9.21867 6.20487 9.35825 6.22529 9.49782C6.24572 9.63739 6.27227 9.77697 6.30495 9.91654L5.16524 10.754L5.63093 11.6037L6.9177 11.0372C7.12194 11.2425 7.34662 11.4149 7.59172 11.5545C7.83681 11.694 8.09417 11.7967 8.36377 11.8624L8.53534 13.2417Z" fill="#82858E"/>
</g>
</svg>
