<svg width="96" height="96" viewBox="0 0 96 96" fill="none" xmlns="http://www.w3.org/2000/svg">
<circle cx="48" cy="48" r="45.5" fill="#F4F4F4" stroke="#D9D9D9" stroke-width="5"/>
<path d="M21.5833 70.5C20.9931 70.5 20.4983 70.2996 20.0989 69.8989C19.6996 69.4982 19.5 69.0017 19.5 68.4094C19.5 67.817 19.6996 67.323 20.0989 66.9271C20.4983 66.5313 20.9931 66.3334 21.5833 66.3334H72.4167C73.0069 66.3334 73.5017 66.5337 73.9011 66.9344C74.3004 67.3351 74.5 67.8317 74.5 68.424C74.5 69.0163 74.3004 69.5104 73.9011 69.9062C73.5017 70.3021 73.0069 70.5 72.4167 70.5H21.5833ZM26.1666 63C25.0416 63 24.0659 62.5868 23.2396 61.7604C22.4132 60.9341 22 59.9584 22 58.8334V29.6666C22 28.5416 22.4132 27.5659 23.2396 26.7396C24.0659 25.9132 25.0416 25.5 26.1666 25.5H67.8334C68.9584 25.5 69.9341 25.9132 70.7604 26.7396C71.5868 27.5659 72 28.5416 72 29.6666V58.8334C72 59.9584 71.5868 60.9341 70.7604 61.7604C69.9341 62.5868 68.9584 63 67.8334 63H26.1666ZM26.1666 58.8334H67.8334V29.6666H26.1666V58.8334Z" fill="#515560"/>
<path d="M17 18L80 81" stroke="#D9D9D9" stroke-width="10"/>
</svg>
