<svg width="14" height="16" viewBox="0 0 14 16" fill="none" xmlns="http://www.w3.org/2000/svg">
<path d="M3.63157 9.08667C3.43593 9.08667 3.2702 9.02009 3.13437 8.88693C2.99853 8.75377 2.93062 8.58877 2.93062 8.39193C2.93062 8.19509 2.99679 8.02833 3.12914 7.89167C3.26148 7.755 3.42547 7.68667 3.62111 7.68667C3.81675 7.68667 3.98248 7.75325 4.11831 7.88641C4.25414 8.01957 4.32206 8.18457 4.32206 8.38141C4.32206 8.57825 4.25588 8.745 4.12354 8.88167C3.99119 9.01833 3.8272 9.08667 3.63157 9.08667ZM6.70267 9.08667C6.50703 9.08667 6.3413 9.02009 6.20547 8.88693C6.06964 8.75377 6.00172 8.58877 6.00172 8.39193C6.00172 8.19509 6.06789 8.02833 6.20024 7.89167C6.33258 7.755 6.49658 7.68667 6.69221 7.68667C6.88785 7.68667 7.05358 7.75325 7.18941 7.88641C7.32524 8.01957 7.39316 8.18457 7.39316 8.38141C7.39316 8.57825 7.32698 8.745 7.19464 8.88167C7.06229 9.01833 6.8983 9.08667 6.70267 9.08667ZM9.75389 9.08667C9.55825 9.08667 9.39252 9.02009 9.25669 8.88693C9.12086 8.75377 9.05294 8.58877 9.05294 8.39193C9.05294 8.19509 9.11912 8.02833 9.25146 7.89167C9.38381 7.755 9.5478 7.68667 9.74343 7.68667C9.93907 7.68667 10.1048 7.75325 10.2406 7.88641C10.3765 8.01957 10.4444 8.18457 10.4444 8.38141C10.4444 8.57825 10.3782 8.745 10.2459 8.88167C10.1135 9.01833 9.94953 9.08667 9.75389 9.08667ZM1.5193 15.1667C1.15306 15.1667 0.839534 15.0331 0.578713 14.766C0.317904 14.499 0.1875 14.1858 0.1875 13.8267V8.62667V3.42667C0.1875 3.06749 0.317904 2.75437 0.578713 2.48729C0.839534 2.22021 1.15306 2.08667 1.5193 2.08667H3.04989V0.166666H4.38169V2.08667H8.99331V0.166666H10.3251V2.08667H11.8557C12.2219 2.08667 12.5355 2.22021 12.7963 2.48729C13.0571 2.75437 13.1875 3.06749 13.1875 3.42667V8.62667V13.8267C13.1875 14.1858 13.0571 14.499 12.7963 14.766C12.5355 15.0331 12.2219 15.1667 11.8557 15.1667H1.5193ZM1.5193 13.8267H11.8557V6.76667H1.5193V13.8267ZM1.5193 5.42667H11.8557V3.42667H1.5193V5.42667Z" fill="white"/>
</svg>
