<svg width="14" height="14" viewBox="0 0 14 14" fill="none" xmlns="http://www.w3.org/2000/svg">
<path d="M1.61139 0.737767L2.80693 1.94981H1.94059V9.50314H8.4901L0 0.895859L0.883663 0L13.8094 13.1217L12.9431 14L9.47772 10.5571H10.6906L11.3837 11.2597V12.4542H4.0198V11.611L4.85149 10.7679H1.94059C1.60561 10.7679 1.31394 10.642 1.06559 10.3902C0.817244 10.1384 0.693069 9.84274 0.693069 9.50314V1.91468C0.693069 1.517 0.846122 1.22143 1.15223 1.02797L1.61139 0.737767ZM13.1856 10.6801L12.0248 9.50314H12.7525V1.91468H4.5396L3.29208 0.649937H12.7525C13.0875 0.649937 13.3791 0.775826 13.6275 1.0276C13.8758 1.27938 14 1.57507 14 1.91468V9.51097C14 9.81022 13.9249 10.0623 13.7748 10.2673C13.6246 10.4722 13.4282 10.6098 13.1856 10.6801Z" fill="white"/>
</svg>
