<svg width="31" height="31" viewBox="0 0 31 31" fill="none" xmlns="http://www.w3.org/2000/svg">
<circle cx="15.5" cy="15.5" r="15.5" fill="#F2F2F2"/>
<path d="M22.2397 16.2676V13.4274H19.3994V12.0073H22.2397V9.16705H23.6598V12.0073H26.5V13.4274H23.6598V16.2676H22.2397ZM13.6006 14.3195C12.6894 14.3195 11.9093 13.995 11.2604 13.3461C10.6114 12.6972 10.287 11.9171 10.287 11.0059C10.287 10.0947 10.6114 9.3146 11.2604 8.6657C11.9093 8.01678 12.6894 7.69232 13.6006 7.69232C14.5118 7.69232 15.2919 8.01678 15.9408 8.6657C16.5897 9.3146 16.9142 10.0947 16.9142 11.0059C16.9142 11.9171 16.5897 12.6972 15.9408 13.3461C15.2919 13.995 14.5118 14.3195 13.6006 14.3195ZM6.50002 21.5293V19.4247C6.50002 18.961 6.62594 18.5316 6.87778 18.1366C7.12964 17.7415 7.46616 17.4377 7.88734 17.2253C8.82317 16.7665 9.76719 16.4224 10.7194 16.193C11.6716 15.9636 12.632 15.8489 13.6006 15.8489C14.5692 15.8489 15.5296 15.9636 16.4818 16.193C17.434 16.4224 18.378 16.7665 19.3138 17.2253C19.735 17.4377 20.0715 17.7415 20.3234 18.1366C20.5752 18.5316 20.7012 18.961 20.7012 19.4247V21.5293H6.50002ZM7.9201 20.1092H19.2811V19.4247C19.2811 19.2329 19.2255 19.0554 19.1145 18.8921C19.0034 18.7289 18.8526 18.5956 18.662 18.4925C17.8464 18.0907 17.0147 17.7864 16.1669 17.5794C15.3192 17.3725 14.4637 17.269 13.6006 17.269C12.7374 17.269 11.882 17.3725 11.0342 17.5794C10.1865 17.7864 9.35478 18.0907 8.53913 18.4925C8.34856 18.5956 8.19776 18.7289 8.0867 18.8921C7.97563 19.0554 7.9201 19.2329 7.9201 19.4247V20.1092ZM13.6006 12.8994C14.1213 12.8994 14.5671 12.714 14.9379 12.3432C15.3087 11.9724 15.4941 11.5266 15.4941 11.0059C15.4941 10.4852 15.3087 10.0394 14.9379 9.66863C14.5671 9.29782 14.1213 9.11242 13.6006 9.11242C13.0799 9.11242 12.6341 9.29782 12.2633 9.66863C11.8925 10.0394 11.7071 10.4852 11.7071 11.0059C11.7071 11.5266 11.8925 11.9724 12.2633 12.3432C12.6341 12.714 13.0799 12.8994 13.6006 12.8994Z" fill="#515560"/>
</svg>
