<svg width="18" height="18" viewBox="0 0 18 18" fill="none" xmlns="http://www.w3.org/2000/svg">
<path d="M8.88459 18V16.5H15.5961C15.673 16.5 15.7436 16.468 15.8077 16.4039C15.8718 16.3398 15.9038 16.2692 15.9038 16.1923V2.3077C15.9038 2.23077 15.8718 2.16024 15.8077 2.09613C15.7436 2.03203 15.673 1.99997 15.5961 1.99997H8.88459V0.5H15.5961C16.1012 0.5 16.5288 0.675 16.8788 1.025C17.2288 1.375 17.4038 1.80257 17.4038 2.3077V16.1923C17.4038 16.6974 17.2288 17.125 16.8788 17.475C16.5288 17.825 16.1012 18 15.5961 18H8.88459ZM7.61542 13.5192L6.57699 12.4346L9.01159 9.99998H0.596191V8.5H9.01159L6.57699 6.0654L7.61542 4.98082L11.8846 9.25L7.61542 13.5192Z" fill="white"/>
</svg>
