<svg width="15" height="11" viewBox="0 0 15 11" fill="none" xmlns="http://www.w3.org/2000/svg">
<path d="M11.5909 6.875V4.8125H9.54545V3.4375H11.5909V1.375H12.9545V3.4375H15V4.8125H12.9545V6.875H11.5909ZM5.45455 5.5C4.70455 5.5 4.0625 5.23073 3.52841 4.69219C2.99432 4.15365 2.72727 3.50625 2.72727 2.75C2.72727 1.99375 2.99432 1.34635 3.52841 0.807813C4.0625 0.269271 4.70455 0 5.45455 0C6.20455 0 6.84659 0.269271 7.38068 0.807813C7.91477 1.34635 8.18182 1.99375 8.18182 2.75C8.18182 3.50625 7.91477 4.15365 7.38068 4.69219C6.84659 5.23073 6.20455 5.5 5.45455 5.5ZM0 11V9.075C0 8.68542 0.0994318 8.32734 0.298295 8.00078C0.497159 7.67422 0.761364 7.425 1.09091 7.25313C1.79545 6.89792 2.51136 6.63151 3.23864 6.45391C3.96591 6.2763 4.70455 6.1875 5.45455 6.1875C6.20455 6.1875 6.94318 6.2763 7.67045 6.45391C8.39773 6.63151 9.11364 6.89792 9.81818 7.25313C10.1477 7.425 10.4119 7.67422 10.6108 8.00078C10.8097 8.32734 10.9091 8.68542 10.9091 9.075V11H0ZM1.36364 9.625H9.54545V9.075C9.54545 8.94896 9.5142 8.83438 9.4517 8.73125C9.3892 8.62813 9.30682 8.54792 9.20455 8.49063C8.59091 8.18125 7.97159 7.94922 7.34659 7.79453C6.72159 7.63984 6.09091 7.5625 5.45455 7.5625C4.81818 7.5625 4.1875 7.63984 3.5625 7.79453C2.9375 7.94922 2.31818 8.18125 1.70455 8.49063C1.60227 8.54792 1.51989 8.62813 1.45739 8.73125C1.39489 8.83438 1.36364 8.94896 1.36364 9.075V9.625ZM5.45455 4.125C5.82955 4.125 6.15057 3.99036 6.41761 3.72109C6.68466 3.45182 6.81818 3.12813 6.81818 2.75C6.81818 2.37188 6.68466 2.04818 6.41761 1.77891C6.15057 1.50964 5.82955 1.375 5.45455 1.375C5.07955 1.375 4.75852 1.50964 4.49148 1.77891C4.22443 2.04818 4.09091 2.37188 4.09091 2.75C4.09091 3.12813 4.22443 3.45182 4.49148 3.72109C4.75852 3.99036 5.07955 4.125 5.45455 4.125Z" fill="#82858E"/>
</svg>
