<svg width="15" height="4" viewBox="0 0 15 4" fill="none" xmlns="http://www.w3.org/2000/svg">
<path d="M1.86948 4C1.35233 4 0.911458 3.80359 0.546875 3.41078C0.182292 3.01794 0 2.54572 0 1.99411C0 1.44248 0.184132 0.972222 0.552396 0.583333C0.920677 0.194444 1.36339 0 1.88052 0C2.39767 0 2.83854 0.196407 3.20312 0.589222C3.56771 0.982055 3.75 1.45428 3.75 2.00589C3.75 2.55752 3.56587 3.02778 3.1976 3.41667C2.82932 3.80556 2.38661 4 1.86948 4ZM7.49448 4C6.97733 4 6.53646 3.80359 6.17187 3.41078C5.80729 3.01794 5.625 2.54572 5.625 1.99411C5.625 1.44248 5.80913 0.972222 6.1774 0.583333C6.54568 0.194444 6.98839 0 7.50552 0C8.02267 0 8.46354 0.196407 8.82812 0.589222C9.19271 0.982055 9.375 1.45428 9.375 2.00589C9.375 2.55752 9.19087 3.02778 8.8226 3.41667C8.45432 3.80556 8.01161 4 7.49448 4ZM13.1195 4C12.6023 4 12.1615 3.80359 11.7969 3.41078C11.4323 3.01794 11.25 2.54572 11.25 1.99411C11.25 1.44248 11.4341 0.972222 11.8024 0.583333C12.1707 0.194444 12.6134 0 13.1305 0C13.6477 0 14.0885 0.196407 14.4531 0.589222C14.8177 0.982055 15 1.45428 15 2.00589C15 2.55752 14.8159 3.02778 14.4476 3.41667C14.0793 3.80556 13.6366 4 13.1195 4Z" fill="white"/>
</svg>
