<svg width="14" height="14" viewBox="0 0 14 14" fill="none" xmlns="http://www.w3.org/2000/svg">
<path d="M1.31079 14C0.950325 14 0.641742 13.8717 0.385045 13.615C0.128348 13.3583 0 13.0497 0 12.6892V3.07672C0 2.71625 0.128348 2.40767 0.385045 2.15098C0.641742 1.89428 0.950325 1.76593 1.31079 1.76593H7.0091L5.69831 3.07672H1.31079V12.6892H10.9233V8.3381L12.2341 7.0091V12.6892C12.2341 13.0497 12.1057 13.3583 11.849 13.615C11.5923 13.8717 11.2837 14 10.9233 14H1.31079ZM9.28479 1.92978L10.2315 2.87646L5.6801 7.39142V8.3199H6.60858L11.1417 3.80494L12.052 4.73342L7.15475 9.63069H4.36931V6.86346L9.28479 1.92978ZM12.052 4.73342L9.28479 1.92978L10.8323 0.382315C11.0883 0.127438 11.3951 0 11.7525 0C12.11 0 12.4161 0.127438 12.671 0.382315L13.6131 1.32924C13.871 1.58395 14 1.89132 14 2.25134C14 2.61136 13.8726 2.91683 13.6177 3.16775L12.052 4.73342Z" fill="#82858E"/>
</svg>
