<svg width="14" height="14" viewBox="0 0 14 14" fill="none" xmlns="http://www.w3.org/2000/svg">
<path d="M5.33578 14L4.97549 11.7931C4.78105 11.7241 4.56944 11.6236 4.34069 11.4914C4.11193 11.3592 3.91176 11.2241 3.7402 11.0862L1.69853 12.0345L0 9.03448L1.88725 7.65517C1.86438 7.56322 1.85008 7.45402 1.84436 7.32759C1.83864 7.20115 1.83578 7.09195 1.83578 7C1.83578 6.90805 1.83864 6.79885 1.84436 6.67241C1.85008 6.54598 1.86438 6.43678 1.88725 6.34483L0 4.96552L1.69853 1.96552L3.75735 2.91379C3.91748 2.77586 4.11193 2.64368 4.34069 2.51724C4.56944 2.3908 4.78105 2.2931 4.97549 2.22414L5.33578 0H8.66422L9.02451 2.2069C9.21895 2.28736 9.43341 2.38793 9.66789 2.50862C9.90237 2.62931 10.0997 2.76437 10.2598 2.91379L12.3186 1.96552L14 4.96552L12.1127 6.31034C12.1356 6.41379 12.1499 6.52874 12.1556 6.65517C12.1614 6.78161 12.1642 6.89655 12.1642 7C12.1642 7.10345 12.1614 7.21552 12.1556 7.33621C12.1499 7.4569 12.1356 7.56897 12.1127 7.67241L14 9.03448L12.3015 12.0345L10.2426 11.0862C10.0825 11.2241 9.89093 11.3621 9.66789 11.5C9.44485 11.6379 9.23039 11.7356 9.02451 11.7931L8.66422 14H5.33578ZM7 9.24138C7.61765 9.24138 8.14379 9.02299 8.57843 8.58621C9.01307 8.14943 9.23039 7.62069 9.23039 7C9.23039 6.37931 9.01307 5.85057 8.57843 5.41379C8.14379 4.97701 7.61765 4.75862 7 4.75862C6.38235 4.75862 5.85621 4.97701 5.42157 5.41379C4.98693 5.85057 4.76961 6.37931 4.76961 7C4.76961 7.62069 4.98693 8.14943 5.42157 8.58621C5.85621 9.02299 6.38235 9.24138 7 9.24138ZM7 8.2069C6.65686 8.2069 6.37091 8.08908 6.14216 7.85345C5.9134 7.61782 5.79902 7.33333 5.79902 7C5.79902 6.66667 5.9134 6.38218 6.14216 6.14655C6.37091 5.91092 6.65686 5.7931 7 5.7931C7.3317 5.7931 7.61479 5.91092 7.84926 6.14655C8.08374 6.38218 8.20098 6.66667 8.20098 7C8.20098 7.33333 8.08374 7.61782 7.84926 7.85345C7.61479 8.08908 7.3317 8.2069 7 8.2069ZM6.27941 12.8276H7.72059L7.96078 10.8966C8.33823 10.8046 8.69853 10.6609 9.04167 10.4655C9.3848 10.2701 9.69363 10.0287 9.96814 9.74138L11.7868 10.5345L12.4387 9.34483L10.826 8.17241C10.8717 7.97701 10.9118 7.78161 10.9461 7.58621C10.9804 7.3908 10.9975 7.1954 10.9975 7C10.9975 6.8046 10.9833 6.60919 10.9547 6.41379C10.9261 6.21839 10.8832 6.02299 10.826 5.82759L12.4387 4.65517L11.7868 3.46552L9.96814 4.25862C9.70507 3.94828 9.40482 3.68966 9.0674 3.48276C8.72998 3.27586 8.36111 3.14943 7.96078 3.10345L7.72059 1.17241H6.27941L6.03922 3.10345C5.65033 3.17241 5.28431 3.30747 4.94118 3.50862C4.59804 3.70977 4.28922 3.95977 4.01471 4.25862L2.21324 3.46552L1.56127 4.65517L3.15686 5.82759C3.11111 6.02299 3.07394 6.21839 3.04534 6.41379C3.01675 6.60919 3.00245 6.8046 3.00245 7C3.00245 7.1954 3.01675 7.3908 3.04534 7.58621C3.07394 7.78161 3.11111 7.97701 3.15686 8.17241L1.56127 9.34483L2.21324 10.5345L4.01471 9.74138C4.30065 10.0287 4.6152 10.2701 4.95833 10.4655C5.30147 10.6609 5.66176 10.8046 6.03922 10.8966L6.27941 12.8276Z" fill="#82858E"/>
</svg>
