<svg width="10" height="10" viewBox="0 0 10 10" fill="none" xmlns="http://www.w3.org/2000/svg">
<path d="M5.00894 10C3.61777 10 2.43515 9.51384 1.46109 8.54151C0.48703 7.56916 0 6.38866 0 5C0 3.61134 0.48703 2.43084 1.46109 1.45849C2.43515 0.486165 3.61777 0 5.00894 0C5.77817 0 6.48778 0.159797 7.13775 0.479391C7.78772 0.798985 8.34228 1.23059 8.80143 1.77419V0H10V4.10394H5.9034V2.90323H8.15742C7.81715 2.38312 7.37158 1.96934 6.82072 1.66188C6.26986 1.35444 5.66617 1.20072 5.00964 1.20072C3.95372 1.20072 3.05456 1.5703 2.31216 2.30946C1.56977 3.04861 1.19857 3.94616 1.19857 5.00211C1.19857 6.05805 1.56902 6.9549 2.30993 7.69265C3.05083 8.43041 3.95051 8.79928 5.00894 8.79928C5.99474 8.79928 6.83899 8.47372 7.54168 7.82258C8.24436 7.17145 8.64639 6.36798 8.74776 5.41219H9.98211C9.8867 6.71446 9.36345 7.80466 8.41234 8.6828C7.46124 9.56093 6.32677 10 5.00894 10Z" fill="#82858E"/>
</svg>
