<svg width="17" height="12" viewBox="0 0 17 12" fill="none" xmlns="http://www.w3.org/2000/svg">
<path d="M8.75 12C7.13384 12 5.75 11.4097 4.59848 10.2292C3.44697 9.04861 2.89141 7.59722 2.93182 5.875L1.7803 7.0625L0.75 6L3.65909 3L6.56818 6L5.53788 7.0625L4.38636 5.875C4.35943 7.18056 4.77694 8.27778 5.63889 9.16667C6.50084 10.0556 7.53788 10.5 8.75 10.5C9.0463 10.5 9.32912 10.4722 9.59849 10.4167C9.86785 10.3611 10.1305 10.2778 10.3864 10.1667L11.4571 11.2708C11.053 11.4931 10.6254 11.6701 10.1742 11.8021C9.72306 11.934 9.24832 12 8.75 12ZM13.8409 9L10.9318 6L11.9621 4.9375L13.1136 6.125C13.1406 4.81944 12.7231 3.72222 11.8611 2.83333C10.9992 1.94444 9.96212 1.5 8.75 1.5C8.46717 1.5 8.18771 1.52778 7.91162 1.58333C7.63552 1.63889 7.36953 1.72222 7.11364 1.83333L6.04293 0.729167C6.44697 0.506944 6.87795 0.329861 7.33586 0.197917C7.79377 0.0659722 8.26515 0 8.75 0C10.3796 0 11.7668 0.590278 12.9116 1.77083C14.0564 2.95139 14.6086 4.40278 14.5682 6.125L15.7197 4.9375L16.75 6L13.8409 9Z" fill="white"/>
</svg>
