<svg width="20" height="20" viewBox="0 0 20 20" fill="none" xmlns="http://www.w3.org/2000/svg">
<path d="M18.6392 20L11.4043 12.7693C10.8614 13.2303 10.2267 13.5898 9.50003 13.848C8.77335 14.1062 7.99669 14.2353 7.17004 14.2353C5.16667 14.2353 3.47082 13.5402 2.08249 12.1499C0.694163 10.7597 0 9.08225 0 7.11765C0 5.15305 0.694902 3.47562 2.08471 2.08536C3.47449 0.69512 5.15592 0 7.129 0C9.10208 0 10.779 0.69512 12.1596 2.08536C13.5403 3.47562 14.2306 5.15442 14.2306 7.12175C14.2306 7.91231 14.1062 8.66924 13.8574 9.39254C13.6086 10.1158 13.2354 10.7946 12.7378 11.4288L20 18.6387L18.6392 20ZM7.14501 12.3707C8.59927 12.3707 9.83311 11.8575 10.8465 10.8313C11.8599 9.80509 12.3666 8.56721 12.3666 7.11765C12.3666 5.66809 11.8596 4.4302 10.8456 3.40399C9.83151 2.37775 8.59799 1.86463 7.14501 1.86463C5.67681 1.86463 4.42959 2.37775 3.40337 3.40399C2.37714 4.4302 1.86402 5.66809 1.86402 7.11765C1.86402 8.56721 2.37682 9.80509 3.40241 10.8313C4.42798 11.8575 5.67551 12.3707 7.14501 12.3707Z" fill="white"/>
</svg>
