<svg width="16" height="17" viewBox="0 0 16 17" fill="none" xmlns="http://www.w3.org/2000/svg">
<path d="M3 10H6.41667C6.54167 9.72222 6.69097 9.45833 6.86458 9.20833C7.03819 8.95833 7.22917 8.72222 7.4375 8.5H3V10ZM3 13H6.10417C6.05208 12.75 6.01823 12.5 6.0026 12.25C5.98698 12 5.99306 11.75 6.02083 11.5H3V13ZM1.5 16C1.0875 16 0.734375 15.8531 0.440625 15.5594C0.146875 15.2656 0 14.9125 0 14.5V1.5C0 1.0875 0.146875 0.734376 0.440625 0.440626C0.734375 0.146876 1.0875 0 1.5 0H8L12 4V7.10417C11.75 7.04861 11.5 7.01389 11.25 7C11 6.98611 10.75 6.99306 10.5 7.02083V5H7V1.5H1.5V14.5H6.66667C6.83333 14.7917 7.02778 15.066 7.25 15.3229C7.47222 15.5799 7.72222 15.8056 8 16H1.5ZM10.9953 14C11.554 14 12.0278 13.8071 12.4167 13.4214C12.8056 13.0356 13 12.5634 13 12.0047C13 11.446 12.8067 10.9722 12.42 10.5833C12.0333 10.1944 11.56 10 11 10C10.5556 10 10.1111 10.1667 9.66667 10.5C9.22222 10.8333 9 11.3333 9 12C9 12.56 9.19288 13.0333 9.57865 13.42C9.9644 13.8067 10.4366 14 10.9953 14ZM14.9375 17L12.8958 14.9375C12.6181 15.1181 12.3192 15.2569 11.9994 15.3542C11.6795 15.4514 11.3499 15.5 11.0104 15.5C10.0313 15.5 9.20139 15.1597 8.52083 14.4792C7.84028 13.7986 7.5 12.9722 7.5 12C7.5 11.0278 7.84028 10.2014 8.52083 9.52083C9.20139 8.84028 10.0278 8.5 11 8.5C11.9722 8.5 12.7986 8.84028 13.4792 9.52083C14.1597 10.2014 14.5 11.0278 14.5 12C14.5 12.3418 14.4514 12.6738 14.3542 12.996C14.2569 13.3181 14.1181 13.6181 13.9375 13.8958L16 15.9375L14.9375 17Z" fill="white"/>
</svg>
