<svg width="17" height="17" viewBox="0 0 17 17" fill="none" xmlns="http://www.w3.org/2000/svg">
<path d="M15.7738 16.8734L9.98592 11.0888C9.55165 11.4576 9.04385 11.7452 8.46253 11.9518C7.88119 12.1583 7.25986 12.2616 6.59854 12.2616C4.99584 12.2616 3.63916 11.7055 2.5285 10.5933C1.41783 9.48111 0.862503 8.13917 0.862503 6.56749C0.862503 4.99581 1.41842 3.65386 2.53027 2.54166C3.6421 1.42946 4.98724 0.873367 6.5657 0.873367C8.14417 0.873367 9.48567 1.42946 10.5902 2.54166C11.6948 3.65386 12.247 4.9969 12.247 6.57077C12.247 7.20321 12.1475 7.80876 11.9484 8.3874C11.7494 8.96602 11.4508 9.50903 11.0527 10.0164L16.8625 15.7843L15.7738 16.8734ZM6.57851 10.7699C7.74192 10.7699 8.72899 10.3594 9.53971 9.53842C10.3504 8.71744 10.7558 7.72713 10.7558 6.56749C10.7558 5.40784 10.3502 4.41753 9.53895 3.59656C8.72771 2.77557 7.7409 2.36507 6.57851 2.36507C5.40395 2.36507 4.40618 2.77557 3.5852 3.59656C2.76421 4.41753 2.35372 5.40784 2.35372 6.56749C2.35372 7.72713 2.76396 8.71744 3.58443 9.53842C4.40489 10.3594 5.40291 10.7699 6.57851 10.7699Z" fill="white"/>
</svg>
